<?xml version="1.0" standalone="no"?>
<!DOCTYPE svg PUBLIC "-//W3C//DTD SVG 20010904//EN"
 "http://www.w3.org/TR/2001/REC-SVG-20010904/DTD/svg10.dtd">
<svg version="1.0" xmlns="http://www.w3.org/2000/svg"
 width="190.000000pt" height="52.000000pt" viewBox="0 0 190.000000 52.000000"
 preserveAspectRatio="xMidYMid meet">

<g transform="translate(0.000000,52.000000) scale(0.100000,-0.100000)"
fill="#000000" stroke="none">
<path d="M657 313 c-4 -32 -9 -80 -12 -108 -4 -36 -3 -44 4 -30 5 11 10 38 11
60 3 80 13 81 50 6 19 -39 37 -71 40 -71 3 0 21 31 40 70 37 77 50 76 50 -2 0
-52 7 -78 22 -78 10 0 5 99 -9 179 l-6 33 -38 -72 c-21 -40 -42 -77 -47 -82
-4 -4 -27 28 -51 72 -23 44 -44 80 -45 80 -2 0 -6 -26 -9 -57z"/>
<path d="M896 288 c-9 -12 -16 -30 -16 -40 0 -19 26 -48 43 -48 8 0 7 4 -1 12
-18 18 -15 75 6 87 16 10 16 10 0 11 -9 0 -24 -10 -32 -22z"/>
<path d="M964 294 c19 -18 21 -65 4 -82 -8 -8 -8 -12 -1 -12 17 0 36 28 36 55
0 29 -19 55 -40 55 -12 0 -12 -3 1 -16z"/>
<path d="M1037 292 c-10 -10 -17 -26 -17 -36 0 -26 19 -56 35 -56 12 0 12 4 0
26 -13 26 -11 47 8 72 15 20 -8 14 -26 -6z"/>
<path d="M1104 294 c20 -20 20 -58 0 -78 -12 -13 -12 -16 -2 -16 39 0 54 81
19 100 -28 15 -35 12 -17 -6z"/>
<path d="M1160 255 l0 -55 33 1 c30 0 31 1 8 10 -21 8 -23 13 -17 54 6 37 4
45 -8 45 -13 0 -16 -12 -16 -55z"/>
<path d="M1246 294 c-30 -29 -15 -94 22 -94 10 0 10 3 -2 16 -32 31 -7 92 33
81 11 -3 21 -1 21 4 0 15 -58 10 -74 -7z"/>
<path d="M1350 255 c0 -30 5 -55 10 -55 6 0 10 11 10 25 0 20 5 25 25 25 20 0
25 -5 25 -25 0 -16 6 -25 15 -25 12 0 15 13 15 55 0 42 -3 55 -15 55 -9 0 -15
-9 -15 -25 0 -20 -5 -25 -25 -25 -20 0 -25 5 -25 25 0 14 -4 25 -10 25 -5 0
-10 -25 -10 -55z"/>
<path d="M1491 261 c-22 -52 -28 -79 -10 -48 13 22 45 22 58 0 5 -10 13 -15
16 -11 8 7 -23 96 -35 103 -4 3 -17 -17 -29 -44z m33 -6 c3 -9 0 -15 -9 -15
-8 0 -15 7 -15 15 0 8 4 15 9 15 5 0 11 -7 15 -15z"/>
<path d="M1583 253 c0 -37 1 -45 4 -20 2 20 7 37 11 37 4 0 20 -16 35 -35 15
-19 32 -35 37 -35 6 0 9 26 8 58 -1 42 -2 47 -5 20 -2 -21 -6 -38 -9 -38 -2 0
-18 16 -35 35 -17 19 -34 35 -38 35 -4 0 -8 -26 -8 -57z"/>
<path d="M1700 255 l0 -55 39 0 c30 0 44 6 55 22 34 48 8 88 -55 88 l-39 0 0
-55z m75 0 c0 -34 -3 -40 -22 -43 -21 -3 -23 1 -23 43 0 42 2 46 23 43 19 -3
22 -9 22 -43z"/>
<path d="M1570 116 c0 -2 8 -10 18 -17 15 -13 16 -12 3 4 -13 16 -21 21 -21
13z"/>
<path d="M1750 106 c0 -8 4 -17 9 -20 5 -4 7 3 4 14 -6 23 -13 26 -13 6z"/>
</g>
</svg>
