<?xml version="1.0" encoding="utf-8"?>
<!-- Generator: Adobe Illustrator 27.0.1, SVG Export Plug-In . SVG Version: 6.00 Build 0)  -->
<svg version="1.1" id="Layer_1" xmlns="http://www.w3.org/2000/svg" xmlns:xlink="http://www.w3.org/1999/xlink" x="0px" y="0px"
	 viewBox="0 0 494 178" style="enable-background:new 0 0 494 178;" xml:space="preserve">
<style type="text/css">
	.st0{fill:#FFFFFF;}
	.st1{fill:none;stroke:#707070;}
	.st2{fill:#003323;}
</style>
<g id="Group_1064" transform="translate(-759 -2017)">
	<g id="PL_logo">
		<g id="Rectangle_5" transform="translate(759 2017)">
			<rect class="st0" width="494" height="178"/>
			<rect x="0.5" y="0.5" class="st1" width="493" height="177"/>
		</g>
		<g>
			<g>
				<g>
					<g>
						<path class="st2" d="M916.3,2077.2c-0.4,0-0.8,0-1.2,0c-5.5,0-10.3,1.9-13.6,4l-0.2-0.1v-2.8h-12.6v54.8l10.7,0h1.9v-40.8
							c2.9-2.2,6.7-3.8,11.1-3.8c1,0,1.9,0,2.8,0.3c6.2,1.4,8.5,6.6,8.5,12.1c0,11.6,0,32.3,0,32.3h12.6v-34.5c0-7-2-12.7-6.3-16.2
							C926.1,2079.2,921.4,2077.4,916.3,2077.2z"/>
						<polygon class="st2" points="866.7,2078.3 866.7,2133.1 879.3,2133.1 879.3,2078.3 879.3,2078.3 						"/>
						<path class="st2" d="M969.5,2077.1c-14.3,0-26.7,11.3-26.7,28.7c0,1.9,0.2,3.8,0.5,5.6c0.1,0.7,0.2,1.3,0.4,1.9
							c0,0.2,0.1,0.4,0.2,0.6c0.1,0.2,0.1,0.4,0.2,0.6c0.2,0.5,0.3,1.1,0.5,1.6c3.9,11.2,13.9,18.1,25,18.1c0.4,0,0.7,0,1.1,0
							c8.7-0.4,16.5-4.8,20.6-13.2c0.6-1.1,1-2.4,1.4-3.7h-1.4h-0.8c0,0-9.3,0-9.3,0c-2.8,4.9-8.5,6.7-13.8,5.8
							c-6.1-1.1-9.9-5.7-11-11.7c-0.1-0.7-0.2-1.4-0.3-2.1h38.8c0.2-1.4,0.3-3.7,0.3-5.5C995,2086.4,982.5,2077.1,969.5,2077.1z
							 M955.9,2100c1.6-8.2,7.6-12,13.5-12c5.9,0,12.6,3.8,13.6,12H955.9z"/>
						<path class="st2" d="M831.3,2078.3c-5,0-9.2,0-13.1,0h-11v77.9h12.9v-25.9l0.2-0.1c3.3,2.2,8.2,4.1,13.9,4.1
							c13.6,0,25.2-10.9,25.2-27.7C859.3,2089.4,847.5,2078.3,831.3,2078.3z M831.4,2122.7c-4.5,0-8.3-1.7-11.3-3.9v-29.3
							c3.3,0,7,0,10.8,0c9.7,0,15.5,6.6,15.5,16.3C846.3,2115.5,840.7,2122.7,831.4,2122.7z"/>
						<path class="st2" d="M1130.4,2077.1c-5.5,0-10.3,1.9-13.5,4l-0.2-0.1v-25.2l-12.6,0v77.3l10.7,0c3.8,0,7.9,0,12.8,0
							c15.8,0,27.4-12.1,27.4-28.8C1155,2087.8,1143.7,2077.1,1130.4,2077.1z M1127.1,2122.1c-3.6,0-7.3,0-10.5,0v-29.8
							c2.9-2.2,6.7-3.8,11.1-3.8c9.1,0,14.6,7.1,14.6,16.4C1142.2,2114.4,1136.6,2122.1,1127.1,2122.1z"/>
						<path class="st2" d="M1187.6,2100.3c-7.6-1.7-14.1-1.6-14.1-6.7c0-3.8,3.5-5.5,9-5.5c5.2,0,12.7,1.8,19,5.6v-12.2
							c-5.4-3-12.8-4.3-19-4.3c-12.3,0-21.6,6-21.7,17.5c0,9.9,6.7,13.6,16.5,15.8c7.8,1.8,14.4,1.6,14.4,7c0,4.1-3.6,5.9-9.4,5.9
							c-5.6,0-13.4-1.9-19.9-6.1v12.6c5.7,3.1,13.3,4.6,19.7,4.6c12.1,0,22.3-5.7,22.3-18
							C1204.3,2105.8,1197.4,2102.5,1187.6,2100.3z"/>
						<path class="st2" d="M1082.1,2081.1l-0.2,0.1c-8-5.3-16.5-3.8-16.5-3.8c-14.9,2.1-22.3,15.7-23.1,25.6
							c-0.7,8.4,1.5,21.5,15.4,28.9c9.4,5,19.3,1.6,24.2-1.6c0.1,0,0.1,0.1,0.2,0.1v2.8h12.6v-54.9h-12.6V2081.1z M1082.1,2119.2
							c-4.6,3.1-8.7,4.1-12.3,3.7c-11.4-1.2-12.9-11.4-13.2-13.9c-0.6-5.1-0.1-14.6,7.3-18.6c9.3-5.1,18.2,1.9,18.2,1.9V2119.2z"/>
						<path class="st2" d="M1031.6,2120v-64.2H1019v64.6v0.1v0.1h0c0,11.6,8.1,12.5,10.6,12.5l10.4,0v-11l-8.4,0"/>
					</g>
				</g>
				<polygon class="st2" points="866.6,2065.3 875.6,2056.4 888.4,2056.4 888.4,2069.1 879.4,2078.1 879.4,2065.3 				"/>
			</g>
		</g>
	</g>
	<g id="Dowmload" transform="translate(853.654 -653.346)">
		<rect id="Rectangle_13" x="361.3" y="2810.3" class="st2" width="38" height="38"/>
		<g id="Group_833" transform="translate(367.803 2817.989)">
			<path id="Path_25" class="st0" d="M22.2,22.3H1.6c-0.9,0-1.6-0.7-1.6-1.6c0,0,0,0,0,0v-5.1c0-0.4,0.3-0.8,0.8-0.8
				s0.8,0.3,0.8,0.8l0,0v5.1c0,0.1,0.1,0.1,0.1,0.1h20.6c0.1,0,0.1,0,0.1-0.1v-5.1c0-0.4,0.3-0.8,0.8-0.8s0.8,0.3,0.8,0.8l0,0v5.1
				C23.8,21.6,23.1,22.3,22.2,22.3C22.2,22.3,22.2,22.3,22.2,22.3z"/>
			<g id="Group_832" transform="translate(4.734)">
				<path id="Path_26" class="st0" d="M7.2,15.2c-0.4,0-0.7-0.3-0.7-0.7V0.7C6.4,0.3,6.7,0,7.2,0s0.8,0.3,0.8,0.8l0,0v13.8
					C7.9,14.9,7.6,15.2,7.2,15.2C7.2,15.2,7.2,15.2,7.2,15.2z"/>
				<path id="Path_27" class="st0" d="M7.2,16.7c-0.2,0-0.4-0.1-0.5-0.2l-6.4-6.4c-0.3-0.3-0.3-0.8,0-1.1S1,8.7,1.3,9c0,0,0,0,0,0
					l5.9,5.9L13,9c0.3-0.3,0.8-0.3,1.1,0c0.3,0.3,0.3,0.7,0,1l-6.4,6.4C7.5,16.7,7.4,16.7,7.2,16.7z"/>
			</g>
		</g>
	</g>
</g>
</svg>
