<?xml version="1.0" standalone="no"?>
<!DOCTYPE svg PUBLIC "-//W3C//DTD SVG 20010904//EN"
 "http://www.w3.org/TR/2001/REC-SVG-20010904/DTD/svg10.dtd">
<svg version="1.0" xmlns="http://www.w3.org/2000/svg"
 width="80.000000pt" height="80.000000pt" viewBox="0 0 80.000000 80.000000"
 preserveAspectRatio="xMidYMid meet">

<g transform="translate(0.000000,80.000000) scale(0.100000,-0.100000)"
fill="#000000" stroke="none">
<path d="M0 400 l0 -400 400 0 400 0 0 400 0 400 -400 0 -400 0 0 -400z m480
138 c0 -5 -15 2 -33 16 -41 31 -47 32 -81 5 -15 -12 -29 -19 -32 -16 -3 3 11
17 32 30 l37 26 38 -26 c22 -14 39 -30 39 -35z m-54 18 c18 -14 16 -15 -18
-13 -28 2 -34 5 -26 15 13 16 20 15 44 -2z m-61 -71 c0 -39 -2 -45 -20 -45
-15 0 -17 2 -6 9 10 6 12 20 8 45 -4 24 -2 36 6 36 7 0 12 -17 12 -45z m47 3
c-3 -30 -1 -38 12 -38 12 0 16 10 16 40 0 54 17 51 21 -3 l4 -44 -40 -1 -40
-2 3 43 c2 25 9 44 15 44 8 0 11 -14 9 -39z m36 -65 c-27 -2 -69 -2 -95 0 -27
2 -5 3 47 3 52 0 74 -1 48 -3z m-278 -64 c0 -5 -4 -7 -10 -4 -5 3 -10 2 -10
-4 0 -5 5 -13 10 -16 6 -3 10 -15 10 -26 0 -13 -6 -19 -22 -18 -17 1 -19 2 -5
6 21 6 22 17 2 33 -12 10 -13 16 -4 26 14 17 29 18 29 3z m210 0 c0 -5 -4 -7
-10 -4 -5 3 -10 2 -10 -4 0 -5 5 -13 10 -16 19 -12 11 -45 -10 -45 -11 0 -20
4 -20 10 0 5 7 7 15 4 8 -4 15 -2 15 4 0 5 -7 12 -15 16 -18 7 -20 32 -2 39
20 9 27 8 27 -4z m36 -4 c-3 -8 -1 -15 3 -15 5 0 12 7 15 16 4 9 9 14 13 11 3
-4 0 -13 -7 -22 -11 -13 -10 -19 5 -35 22 -24 9 -27 -17 -3 -18 16 -18 16 -12
0 3 -10 1 -17 -5 -17 -12 0 -15 62 -4 73 11 12 15 8 9 -8z m99 -23 c-3 -8 0
-21 6 -28 8 -10 8 -14 1 -14 -6 0 -16 8 -21 18 -10 16 -10 16 -11 0 0 -10 -4
-18 -10 -18 -15 0 -12 68 3 73 18 6 39 -14 32 -31z m121 27 c3 -5 -2 -9 -12
-9 -12 0 -15 -7 -12 -30 3 -16 1 -30 -4 -30 -4 0 -8 14 -8 30 0 21 -5 30 -16
30 -8 0 -13 4 -10 9 7 11 55 11 62 0z m-407 -30 c14 -41 14 -44 -4 -29 -12 10
-18 10 -32 -1 -15 -12 -16 -12 -9 6 5 11 11 28 13 38 8 26 20 21 32 -14z m84
13 c3 15 5 9 6 -16 l1 -39 -25 23 -25 23 0 -21 c0 -12 -4 -22 -9 -22 -5 0 -8
8 -6 18 2 9 4 26 4 36 1 18 2 18 25 -3 l24 -23 5 24z m247 -17 c0 -19 -4 -35
-10 -35 -5 0 -10 16 -10 35 0 19 5 35 10 35 6 0 10 -16 10 -35z m110 0 c0 -19
-4 -35 -10 -35 -5 0 -10 16 -10 35 0 19 5 35 10 35 6 0 10 -16 10 -35z m-222
-66 c-10 -7 -10 -9 0 -9 20 0 14 -16 -8 -17 -13 -1 -20 4 -20 16 0 23 9 31 27
24 12 -5 12 -7 1 -14z m-255 -9 c3 -11 1 -20 -4 -20 -5 0 -9 9 -9 20 0 11 2
20 4 20 2 0 6 -9 9 -20z m24 -12 c-3 -7 -5 -2 -5 12 0 14 2 19 5 13 2 -7 2
-19 0 -25z m63 0 c0 -5 -9 -3 -20 4 -11 7 -20 16 -20 20 0 5 9 3 20 -4 11 -7
20 -16 20 -20z m33 12 c3 -11 1 -20 -4 -20 -5 0 -9 9 -9 20 0 11 2 20 4 20 2
0 6 -9 9 -20z m40 -14 c-3 -4 -9 -2 -14 5 -13 22 -11 31 5 17 8 -7 12 -17 9
-22z m44 14 c-1 -11 -5 -20 -9 -20 -4 0 -8 9 -8 20 0 11 4 20 9 20 6 0 9 -9 8
-20z m103 -12 c0 -5 -7 -3 -15 6 -8 8 -15 18 -15 22 0 3 7 1 15 -6 8 -7 15
-17 15 -22z m30 12 c0 -11 -4 -20 -10 -20 -5 0 -10 9 -10 20 0 11 5 20 10 20
6 0 10 -9 10 -20z m40 0 c0 -11 -4 -20 -10 -20 -5 0 -10 9 -10 20 0 11 5 20
10 20 6 0 10 -9 10 -20z m49 2 c-8 -9 -14 -18 -15 -20 -1 -1 -4 5 -6 16 -4 12
1 18 14 19 17 2 18 0 7 -15z m-259 -154 c0 -5 6 -6 13 -2 6 4 9 4 5 -1 -11
-11 -63 -14 -79 -4 -7 4 -10 11 -6 15 3 4 14 1 24 -7 15 -12 16 -12 11 2 -5
13 -2 16 13 12 10 -3 19 -10 19 -15z m-110 2 c0 -5 -7 -10 -15 -10 -8 0 -15 5
-15 10 0 6 7 10 15 10 8 0 15 -4 15 -10z m30 -6 c0 -8 -4 -12 -10 -9 -5 3 -10
10 -10 16 0 5 5 9 10 9 6 0 10 -7 10 -16z m174 0 c3 -7 -3 -10 -15 -7 -27 7
-34 22 -9 20 10 -1 22 -7 24 -13z m80 8 c2 -4 -4 -9 -15 -9 -10 -1 -19 2 -19
8 0 11 27 12 34 1z m66 -2 c0 -5 -4 -10 -10 -10 -5 0 -10 5 -10 10 0 6 5 10
10 10 6 0 10 -4 10 -10z"/>
</g>
</svg>
