<?xml version="1.0" standalone="no"?>
<!DOCTYPE svg PUBLIC "-//W3C//DTD SVG 20010904//EN"
 "http://www.w3.org/TR/2001/REC-SVG-20010904/DTD/svg10.dtd">
<svg version="1.0" xmlns="http://www.w3.org/2000/svg"
 width="286.000000pt" height="226.000000pt" viewBox="0 0 286.000000 226.000000"
 preserveAspectRatio="xMidYMid meet">

<g transform="translate(0.000000,226.000000) scale(0.100000,-0.100000)"
fill="#000000" stroke="none">
<path d="M22 1168 l3 -1073 240 -5 240 -6 -252 -2 -253 -2 0 -40 0 -40 1430 0
1430 0 0 38 0 37 -240 -3 c-158 -2 -240 1 -240 7 0 7 82 12 228 13 l227 3 0
1070 0 1070 -1408 3 -1407 2 2 -1072z m1598 827 c80 -64 146 -126 148 -136 8
-47 -31 -27 -177 91 l-149 121 -154 -120 c-84 -67 -157 -119 -163 -118 -5 2
-11 13 -13 24 -2 16 33 49 164 152 146 115 169 130 183 118 9 -8 81 -67 161
-132z m-83 -42 l88 -68 -92 -3 c-51 -1 -136 -1 -190 0 l-98 3 90 67 c50 37 96
67 102 67 7 1 52 -29 100 -66z m151 -115 c-4 -10 -65 -14 -251 -16 -215 -2
-247 0 -247 13 0 13 33 15 251 15 196 0 250 -3 247 -12z m-382 -49 c3 -6 1
-16 -5 -22 -7 -7 -11 -60 -11 -147 0 -87 4 -140 11 -147 21 -21 -2 -33 -61
-33 -62 0 -80 10 -55 30 23 19 22 285 -1 294 -13 5 -14 9 -4 21 15 18 115 21
126 4z m194 1 c13 -9 13 -12 -2 -24 -16 -11 -18 -31 -18 -146 0 -112 3 -135
17 -145 28 -21 5 -35 -57 -35 -64 0 -81 12 -56 39 24 27 23 256 -1 283 -15 17
-15 20 -3 28 20 13 101 12 120 0z m197 -7 c4 -9 1 -19 -5 -21 -16 -5 -17 -273
-1 -289 21 -21 -2 -33 -62 -33 -45 0 -59 3 -59 14 0 8 5 18 10 21 15 9 13 282
-2 287 -6 2 -9 12 -5 21 5 13 19 17 62 17 43 0 57 -4 62 -17z m51 -385 l-3
-23 -304 -3 c-183 -1 -309 2 -314 7 -5 5 -7 17 -4 25 6 14 44 16 317 16 l311
0 -3 -22z m62 -83 l0 -25 -369 0 c-247 0 -372 3 -376 10 -4 6 -4 17 -1 25 5
13 61 15 376 15 l370 0 0 -25z m-1352 -281 c17 -5 22 -14 22 -40 0 -39 -11
-44 -25 -11 -18 41 -85 30 -85 -14 0 -11 24 -46 54 -78 62 -67 74 -103 52
-154 -17 -41 -41 -57 -90 -57 -57 0 -66 7 -66 57 0 27 4 42 10 38 6 -3 10 -15
10 -25 0 -11 11 -27 25 -36 23 -15 27 -15 50 0 38 25 32 59 -19 114 -54 58
-66 81 -66 125 0 59 62 98 128 81z m860 0 c18 -5 22 -13 22 -48 l0 -41 -20 33
c-23 37 -63 44 -80 13 -16 -32 -13 -40 48 -103 54 -57 57 -63 57 -110 0 -42
-4 -53 -28 -74 -31 -27 -103 -34 -125 -12 -14 14 -16 88 -2 88 6 0 10 -9 10
-20 0 -31 37 -62 63 -54 51 16 51 70 0 119 -52 51 -73 85 -73 120 0 66 59 107
128 89z m1091 -42 c0 -37 0 -37 -16 -14 -11 15 -26 22 -49 22 l-34 0 0 -150
c0 -127 2 -150 15 -150 8 0 15 -4 15 -9 0 -10 -105 -9 -116 2 -4 4 0 7 9 7 15
0 17 17 17 150 l0 150 -40 0 c-27 0 -43 -5 -46 -15 -10 -26 -25 -16 -18 13 4
15 8 29 9 32 2 3 60 4 129 2 l126 -3 -1 -37z m-1705 -105 c57 -166 68 -187
100 -187 21 0 24 5 29 68 4 37 7 111 7 165 0 53 4 97 8 97 4 0 53 -54 107
-120 54 -66 100 -120 102 -120 2 0 3 50 3 110 0 105 -1 111 -22 120 -18 7 -9
9 36 9 50 1 57 -1 43 -11 -15 -11 -18 -39 -24 -176 -3 -89 -9 -161 -13 -160
-4 2 -52 55 -105 118 -54 63 -99 117 -101 119 -2 2 -4 -44 -4 -103 0 -99 2
-108 20 -113 43 -11 6 -20 -86 -19 -90 1 -97 3 -99 21 -1 11 -7 37 -14 58 -12
35 -15 37 -56 37 -42 0 -43 -1 -59 -47 -19 -57 -20 -53 1 -53 36 0 0 -14 -42
-16 -44 -3 -62 9 -27 18 13 4 33 49 72 166 30 89 60 162 65 162 6 0 32 -64 59
-143z m804 132 c-14 -8 -18 -23 -18 -72 l0 -62 40 45 c22 25 43 57 46 73 6 25
10 27 58 27 l51 -1 -35 -19 c-34 -18 -120 -110 -120 -127 0 -12 107 -145 133
-165 12 -10 32 -18 45 -18 22 0 22 1 22 155 0 136 -2 155 -17 164 -13 8 4 10
65 11 75 0 85 -2 107 -25 32 -31 34 -91 4 -129 -26 -33 -21 -46 40 -123 43
-55 82 -70 95 -37 3 9 6 76 6 149 0 127 -1 135 -22 149 -21 15 -19 16 42 16
49 -1 61 -3 48 -11 -16 -9 -18 -28 -18 -164 0 -150 1 -155 21 -155 11 0 18 -4
15 -8 -7 -12 -161 -14 -190 -2 -13 5 -41 36 -61 69 -58 94 -93 93 -81 -3 5
-39 12 -56 22 -56 8 0 14 -4 14 -8 0 -12 -165 -13 -194 -2 -13 5 -47 40 -76
79 -29 39 -54 71 -56 71 -2 0 -4 -31 -4 -70 0 -56 3 -70 15 -70 8 0 15 -4 15
-9 0 -4 -25 -8 -55 -8 -51 0 -72 10 -42 19 9 3 13 45 15 150 3 142 3 146 -20
162 -22 15 -20 16 42 16 49 -1 61 -3 48 -11z m1040 0 c-16 -9 -18 -28 -18
-164 0 -150 1 -155 21 -155 11 0 18 -4 15 -9 -7 -10 -116 -11 -116 0 0 4 6 9
13 11 8 3 13 44 15 145 4 132 3 142 -17 162 l-21 21 63 0 c47 -1 58 -3 45 -11z
m-1986 -483 c-5 -84 7 -116 43 -116 41 0 55 25 55 99 0 39 -5 72 -12 79 -9 9
-5 12 18 12 l30 0 -3 -62 c-2 -35 -6 -73 -9 -86 -13 -62 -93 -84 -139 -37 -22
21 -25 33 -25 93 0 39 -5 73 -12 80 -9 9 -4 12 23 12 l34 0 -3 -74z m277 4
c34 -38 67 -70 72 -70 12 0 0 110 -14 128 -7 9 0 12 29 12 30 0 35 -3 26 -12
-8 -8 -12 -46 -12 -105 0 -51 -3 -93 -7 -93 -4 0 -40 32 -80 72 l-72 71 6 -59
c3 -32 10 -65 16 -71 7 -10 0 -13 -29 -13 -30 0 -35 3 -26 12 8 8 12 46 12
105 0 51 4 93 8 93 4 0 36 -31 71 -70z m230 48 c-16 -29 -7 -167 12 -179 9 -6
0 -9 -29 -9 -39 0 -42 2 -32 19 14 27 13 164 -2 179 -9 9 -4 12 25 12 36 0 37
-1 26 -22z m108 5 c-1 -21 34 -123 43 -123 10 0 52 119 45 130 -4 6 7 10 26
10 30 0 31 -1 17 -17 -8 -10 -32 -57 -53 -105 -21 -49 -41 -88 -44 -88 -3 0
-19 33 -35 73 -16 39 -37 87 -47 105 l-18 32 34 0 c26 0 33 -4 32 -17z m283
-5 c0 -17 -3 -19 -12 -10 -7 7 -20 12 -30 12 -14 0 -18 -8 -18 -36 0 -35 1
-36 30 -32 24 4 30 1 30 -13 0 -15 -6 -17 -30 -12 -29 5 -30 5 -30 -36 0 -36
3 -41 23 -41 13 0 29 6 36 13 10 10 12 8 9 -8 -3 -17 -12 -20 -68 -23 -52 -2
-63 -1 -52 9 16 17 17 170 0 187 -9 9 2 12 50 12 57 0 62 -2 62 -22z m170 9
c30 -15 38 -58 16 -77 -23 -18 -20 -25 20 -70 43 -47 54 -50 54 -12 l0 27 19
-24 c21 -27 55 -25 59 4 2 12 -11 33 -33 53 -56 54 -41 112 31 112 31 0 34 -3
34 -27 -1 -24 -2 -25 -11 -10 -13 22 -59 23 -59 0 0 -9 18 -33 40 -53 44 -41
50 -70 20 -100 -15 -15 -33 -19 -87 -19 -67 1 -68 1 -107 45 -22 24 -43 44
-48 44 -13 0 -9 -65 4 -78 9 -9 4 -12 -25 -12 -35 0 -36 1 -27 26 6 14 10 56
10 94 0 55 -4 71 -17 79 -27 16 76 14 107 -2z m322 1 c-7 -7 -12 -44 -12 -95
0 -68 3 -84 18 -92 13 -8 8 -10 -26 -11 -39 0 -42 2 -32 19 14 27 13 164 -2
179 -9 9 -3 12 27 12 30 0 36 -3 27 -12z m298 -2 c0 -17 32 -76 42 -76 3 0 14
20 25 45 14 36 23 45 42 45 l24 0 -20 -22 c-53 -58 -79 -148 -51 -176 9 -9 4
-12 -22 -12 l-35 0 3 52 c2 47 -1 58 -34 103 -29 38 -39 46 -43 32 -4 -12 -10
-14 -21 -7 -8 5 -23 10 -32 10 -16 0 -18 -11 -18 -83 0 -51 5 -88 12 -95 9 -9
2 -12 -32 -12 -34 0 -41 3 -32 12 7 7 12 44 12 95 0 80 -1 83 -23 83 -13 0
-28 -5 -35 -12 -9 -9 -12 -7 -12 10 0 21 3 22 125 22 101 0 125 -3 125 -14z
m130 -256 c0 -7 -320 -10 -940 -10 -620 0 -940 3 -940 10 0 7 320 10 940 10
620 0 940 -3 940 -10z m-1732 -217 c-10 -2 -18 -8 -18 -13 0 -5 8 -14 18 -19
16 -10 16 -10 0 -11 -11 0 -18 -8 -18 -20 0 -11 -4 -20 -10 -20 -5 0 -10 20
-10 45 0 43 1 45 28 44 16 -1 20 -3 10 -6z m58 -9 c-19 -19 -20 -36 -4 -52 17
-17 45 -15 52 4 9 24 8 31 -10 48 -14 14 -14 16 0 16 18 0 40 -36 32 -55 -3
-8 -16 -21 -30 -30 -20 -14 -28 -14 -45 -3 -12 7 -24 21 -27 30 -7 23 13 58
32 58 14 0 14 -2 0 -16z m147 1 c4 -8 2 -17 -4 -21 -6 -4 -4 -13 7 -25 22 -24
10 -38 -14 -16 -24 21 -33 22 -25 1 4 -11 2 -15 -7 -12 -7 2 -13 21 -14 46 -1
39 1 42 25 42 15 0 29 -7 32 -15z m115 8 c-20 -5 -24 -33 -5 -34 10 0 10 -2 0
-6 -18 -7 -16 -33 3 -33 8 0 13 -4 10 -9 -3 -5 -15 -7 -26 -4 -16 4 -20 14
-20 49 0 42 2 44 28 43 16 -1 20 -3 10 -6z m58 -4 c4 -8 9 -8 17 0 19 19 31
12 14 -7 -15 -17 -15 -20 -1 -41 20 -27 8 -44 -12 -17 -14 20 -14 20 -29 0 -8
-10 -15 -14 -15 -9 0 6 5 16 12 23 9 9 9 18 0 37 -11 24 0 36 14 14z m144 3
c0 -4 -15 -7 -32 -7 -23 0 -34 -5 -36 -18 -6 -28 18 -49 47 -42 25 6 25 6 8
-12 -16 -16 -20 -17 -45 -3 -30 17 -40 53 -22 76 13 14 80 20 80 6z m58 1
c-10 -2 -18 -11 -18 -19 0 -8 8 -15 18 -15 16 -1 16 -2 0 -6 -10 -2 -18 -11
-18 -18 0 -7 8 -16 18 -18 10 -3 6 -5 -10 -6 -27 -1 -28 1 -28 44 0 43 1 45
28 44 16 -1 20 -3 10 -6z m57 -30 c0 -30 4 -38 18 -37 9 1 17 -2 17 -7 0 -5
-11 -9 -25 -9 -23 0 -25 4 -25 45 0 25 3 45 8 45 4 0 7 -17 7 -37z m75 -2 c0
-29 5 -41 18 -44 10 -3 6 -5 -10 -6 -27 -1 -28 1 -28 44 0 25 5 45 10 45 6 0
10 -18 10 -39z m88 32 c-10 -2 -18 -11 -18 -19 0 -8 8 -15 18 -15 16 -1 16 -2
0 -6 -10 -2 -18 -11 -18 -18 0 -7 8 -16 18 -18 10 -3 6 -5 -10 -6 -27 -1 -28
1 -28 44 0 43 1 45 28 44 16 -1 20 -3 10 -6z m115 -22 c3 27 4 23 5 -15 l2
-50 -35 34 -35 34 0 -32 c0 -18 -5 -32 -11 -32 -6 0 -8 7 -5 16 3 9 6 30 6 47
l0 31 34 -33 35 -34 4 34z m117 21 c0 -5 -13 -7 -30 -4 -22 3 -32 0 -36 -13
-10 -26 10 -50 40 -50 29 1 35 -10 11 -19 -43 -16 -94 45 -65 79 13 16 80 21
80 7z m58 1 c-10 -2 -18 -11 -18 -19 0 -8 8 -15 18 -15 16 -1 16 -2 0 -6 -10
-2 -18 -11 -18 -18 0 -7 8 -16 18 -18 11 -3 8 -5 -9 -6 -24 -1 -26 2 -25 44 0
42 2 45 26 44 17 -1 19 -3 8 -6z m102 -38 c0 -25 -4 -45 -10 -45 -5 0 -10 20
-10 45 0 25 5 45 10 45 6 0 10 -20 10 -45z m77 13 l33 -32 -6 32 c-4 21 -3 32
5 32 6 0 11 -18 11 -45 0 -25 -3 -45 -7 -45 -4 0 -22 15 -41 33 l-34 32 4 -32
c3 -18 1 -33 -4 -33 -4 0 -8 20 -8 45 0 25 3 45 7 45 4 0 22 -14 40 -32z m133
-7 c0 -29 5 -41 18 -44 10 -3 6 -5 -10 -6 -27 -1 -28 1 -28 44 0 25 5 45 10
45 6 0 10 -18 10 -39z m70 -6 c0 -25 -4 -45 -10 -45 -5 0 -10 20 -10 45 0 25
5 45 10 45 6 0 10 -20 10 -45z m78 38 c-20 -5 -24 -33 -5 -34 10 0 10 -2 0 -6
-7 -2 -13 -13 -13 -24 0 -10 -4 -19 -10 -19 -5 0 -10 20 -10 45 0 43 1 45 28
44 16 -1 20 -3 10 -6z m70 0 c-10 -2 -18 -11 -18 -19 0 -8 8 -15 18 -15 16 -1
16 -2 0 -6 -10 -2 -18 -11 -18 -18 0 -7 8 -16 18 -18 10 -3 6 -5 -10 -6 -27
-1 -28 1 -28 44 0 43 1 45 28 44 16 -1 20 -3 10 -6z"/>
<path d="M1254 1610 c0 -74 1 -105 3 -67 2 37 2 97 0 135 -2 37 -3 6 -3 -68z"/>
<path d="M1440 1610 c0 -80 4 -130 10 -130 6 0 10 50 10 130 0 80 -4 130 -10
130 -6 0 -10 -50 -10 -130z"/>
<path d="M1644 1610 c0 -74 1 -105 3 -67 2 37 2 97 0 135 -2 37 -3 6 -3 -68z"/>
<path d="M618 880 l-16 -50 33 0 34 0 -16 48 c-9 26 -17 48 -18 49 -1 2 -8
-20 -17 -47z"/>
<path d="M1782 928 c3 -69 4 -73 27 -76 33 -5 51 21 51 73 0 47 -22 75 -59 75
-21 0 -22 -3 -19 -72z"/>
<path d="M1570 544 c0 -41 2 -45 23 -42 40 6 32 88 -9 88 -10 0 -14 -14 -14
-46z"/>
<path d="M810 106 c0 -8 4 -17 9 -20 10 -7 23 19 14 28 -11 11 -23 6 -23 -8z"/>
</g>
</svg>
