<svg xmlns="http://www.w3.org/2000/svg" xmlns:xlink="http://www.w3.org/1999/xlink" width="1366" zoomAndPan="magnify" viewBox="0 0 1024.5 576" height="768" preserveAspectRatio="xMidYMid meet" version="1.0"><defs><clipPath id="275a589d72"><path d="M 264 28.925781 L 708.894531 28.925781 L 708.894531 546.921875 L 264 546.921875 Z M 264 28.925781 " clip-rule="nonzero"/></clipPath></defs><g clip-path="url(#275a589d72)"><path fill="#000000" d="M 338.4375 397.355469 C 342.890625 399.4375 347.378906 401.234375 351.65625 403.0625 C 353.28125 440.371094 341.609375 459.082031 311.273438 484.695312 C 306.210938 488.972656 301.828125 487.347656 298.875 484.386719 C 297.414062 482.925781 296.640625 481.128906 296.640625 479.667969 C 296.605469 478.207031 297.011719 476.671875 299.527344 474.574219 C 314.839844 461.703125 325.984375 451.542969 332.542969 438.222656 C 337.996094 427.042969 339.695312 414.175781 338.4375 397.355469 Z M 636.808594 322.21875 L 679.566406 322.21875 C 688.019531 322.21875 690.867188 323.738281 692.367188 325.644531 C 693.902344 327.582031 694.984375 332.199219 694.984375 340.253906 L 694.984375 506.433594 C 694.984375 518.015625 693.046875 524.304688 690.027344 527.53125 C 687.003906 530.761719 681.425781 532.730469 670.289062 532.730469 L 314.363281 532.730469 C 310.425781 532.730469 309.773438 531.367188 309.402344 528.921875 C 309.027344 526.476562 310.019531 522.84375 314.433594 520.15625 L 386.0625 476.242188 C 393.867188 471.449219 399.75 466.355469 404.875 461.027344 C 407.527344 461.15625 410.136719 460.847656 412.648438 460.105469 C 417.648438 458.644531 422.296875 455.558594 425.25 450.835938 C 428.171875 446.148438 429.117188 439.859375 427.359375 433.574219 L 455.371094 398.789062 C 462.441406 390.023438 467.363281 384.625 472.359375 381.570312 C 477.347656 378.511719 482.820312 377.085938 492.699219 377.085938 L 517.085938 377.085938 C 539.675781 377.085938 550.84375 374.195312 568.097656 361.457031 L 603.996094 334.996094 C 618.265625 324.457031 621.050781 322.21875 636.808594 322.21875 Z M 547.140625 269.832031 C 550.980469 271.324219 554.476562 273.949219 556.582031 276.457031 C 557.601562 277.683594 560.417969 283.730469 562.765625 291.167969 C 565.113281 298.648438 567.484375 307.714844 569.964844 316.445312 C 571.796875 322.96875 576.074219 327.894531 581.207031 330.371094 C 582.464844 330.976562 583.757812 331.421875 585.046875 331.761719 L 559.875 350.34375 C 541.976562 362.0625 531.046875 363.25 515.175781 363.25 C 539.027344 336.351562 547.109375 304.863281 547.140625 269.832031 Z M 519.433594 256.683594 L 533.285156 263.277344 C 534.371094 301.570312 526.835938 332.511719 499.734375 359.519531 C 497.328125 361.964844 495.382812 362.410156 493.480469 362.304688 C 491.609375 362.199219 489.574219 361.214844 488.046875 359.617188 C 486.488281 358.058594 485.570312 355.984375 485.464844 354.085938 C 485.40625 352.183594 485.910156 350.277344 488.386719 347.871094 C 514.804688 322.347656 522.25 294.976562 519.433594 256.683594 Z M 424.5 255.664062 C 426.769531 255.125 429.691406 258.25 428.980469 262.363281 C 424.738281 286.515625 393.042969 310.125 360.792969 300.714844 C 356.378906 299.429688 351.957031 302.75 351.921875 307.34375 L 351.921875 364.746094 C 351.921875 367.699219 353.796875 370.320312 356.539062 371.265625 C 367.621094 375.171875 383.714844 385.199219 395.164062 396.710938 C 403.582031 406.628906 408.8125 419.363281 414.046875 437.234375 C 414.929688 440.257812 414.445312 441.921875 413.5 443.414062 C 412.554688 444.910156 410.8125 446.175781 408.78125 446.78125 C 406.746094 447.355469 404.640625 447.222656 403.042969 446.472656 C 401.445312 445.722656 400.121094 444.570312 399.234375 441.542969 C 394.207031 424.398438 389.554688 413.863281 383.003906 406.316406 C 376.449219 398.808594 367.007812 394.570312 357.910156 390.664062 C 348.773438 386.75 339.832031 383.148438 333.859375 378.800781 C 323.09375 370.953125 319.769531 363.988281 319.800781 345.613281 L 319.835938 316.128906 C 319.835938 310.082031 312.601562 306.925781 308.179688 311.066406 C 289.636719 328.394531 288.957031 358.320312 292.289062 382.101562 C 293.234375 388.863281 290.652344 389.921875 287.980469 390.324219 C 285.292969 390.695312 282.402344 390.082031 281.515625 384.550781 C 278.59375 365.96875 277.109375 347.792969 280.742188 331.722656 C 284.367188 315.695312 292.660156 301.660156 310.796875 289.738281 C 319.488281 284.101562 339.859375 283.117188 355.554688 287.527344 C 374.640625 292.902344 389.355469 292.214844 400.453125 286.136719 C 411.589844 280.09375 417.539062 269.121094 422.597656 257.464844 C 423.039062 256.417969 423.757812 255.84375 424.5 255.664062 Z M 334.355469 217.316406 C 335.476562 217.242188 336.597656 217.28125 337.6875 217.386719 C 339.183594 217.523438 340.640625 217.796875 342.039062 218.203125 C 347.71875 219.828125 352.671875 223.570312 355.660156 229.074219 C 361.703125 240.039062 357.589844 253.671875 346.183594 259.78125 C 334.839844 265.859375 320.917969 261.746094 314.902344 250.78125 C 308.898438 239.769531 313 226.25 324.347656 220.171875 C 327.535156 218.4375 330.964844 217.523438 334.355469 217.316406 Z M 611.066406 109.769531 C 612.898438 109.632812 615.003906 110.996094 616.054688 113.101562 C 617.144531 115.210938 617.410156 117.074219 614.933594 119.625 C 593.125 142.082031 568.710938 154.304688 540.757812 156.75 C 537.191406 157.089844 534.472656 160.042969 534.4375 163.609375 L 533.863281 223.09375 C 533.832031 225.675781 535.21875 228.023438 537.464844 229.246094 L 568.808594 246.703125 C 572.546875 248.773438 576.007812 251.765625 579.339844 255.164062 C 586.644531 264.027344 593.578125 289.234375 598.976562 308.253906 C 599.863281 311.410156 599.347656 313.210938 598.332031 314.777344 C 597.3125 316.375 595.511719 317.667969 593.375 318.273438 C 591.203125 318.894531 588.960938 318.75 587.25 317.933594 C 585.589844 317.09375 584.167969 315.828125 583.28125 312.671875 C 580.835938 304.113281 578.460938 294.9375 575.949219 286.992188 C 573.464844 279.042969 571.464844 272.488281 567.1875 267.53125 C 563.246094 262.9375 558.050781 259.710938 553.5 257.539062 L 513.664062 238.648438 C 508.125 236.035156 505.203125 232.675781 503.132812 227.332031 C 501.050781 222.003906 500.210938 214.464844 500.582031 204.820312 L 500.816406 174.476562 C 500.886719 168.398438 493.6875 165.207031 489.203125 169.316406 C 470.082031 186.875 469.066406 217.6875 472.292969 242.179688 C 473.238281 249.25 470.460938 250.402344 467.574219 250.78125 C 464.722656 251.191406 461.65625 250.441406 460.808594 244.667969 C 457.960938 225.472656 456.566406 206.65625 460.4375 190.109375 C 464.351562 173.570312 472.640625 158.484375 491.894531 147.039062 C 504.285156 139.636719 516.210938 140.78125 526.371094 141.089844 C 557.855469 142.007812 581.285156 132.566406 607.882812 111.238281 C 609.234375 110.109375 610.210938 109.800781 611.066406 109.769531 Z M 515.761719 71.242188 C 518.886719 70.9375 521.976562 71.242188 524.898438 72.128906 C 530.765625 73.859375 535.898438 77.871094 538.988281 83.578125 C 545.140625 95.0625 540.71875 109.164062 528.835938 115.40625 C 517.015625 121.621094 502.511719 117.207031 496.394531 105.757812 C 490.246094 94.28125 494.667969 80.210938 506.515625 74 C 509.507812 72.4375 512.632812 71.511719 515.761719 71.242188 Z M 618.636719 42.707031 C 628.113281 42.910156 643.527344 47.839844 661.289062 49.746094 C 656.195312 53.507812 651.242188 56.875 643.257812 59.289062 C 634.292969 61.976562 623.769531 65.367188 614.457031 73.421875 L 606.546875 45.460938 C 610.890625 43.25 614.59375 42.605469 618.636719 42.707031 Z M 618.941406 28.878906 C 611.640625 28.71875 603.894531 30.679688 596.085938 35.539062 C 591.601562 38.359375 590.957031 41.042969 591.882812 44.332031 L 606.652344 96.582031 C 604.035156 97.292969 601.453125 98.558594 599.183594 100.421875 C 576.832031 118.320312 559.714844 126.207031 536.082031 127.191406 C 553.878906 117.269531 560.777344 94.949219 551.15625 77.046875 L 551.15625 76.976562 C 546.300781 67.902344 538.148438 61.695312 528.910156 58.941406 C 525.414062 57.890625 521.8125 57.351562 518.140625 57.351562 C 512.03125 57.316406 505.851562 58.707031 500.074219 61.726562 C 481.703125 71.378906 474.464844 94.101562 484.214844 112.3125 C 488.121094 119.617188 494.199219 125.050781 501.226562 128.351562 C 495.617188 129.5 490.148438 131.582031 484.34375 135.375 C 462.851562 149.234375 451.539062 167.519531 446.992188 186.980469 C 442.433594 206.410156 444.128906 226.863281 447.089844 246.664062 C 448.890625 258.828125 459.722656 265.859375 469.476562 264.503906 C 479.1875 263.179688 487.710938 253.1875 486.011719 240.378906 C 484.789062 231.070312 484.691406 221.183594 485.777344 211.84375 L 486.761719 211.875 C 486.894531 219.414062 487.851562 226.242188 490.1875 232.363281 C 492.976562 239.457031 498.039062 245.40625 504.867188 249.445312 C 509.410156 290.410156 504.558594 313.003906 478.75 337.9375 C 473.824219 342.691406 471.414062 348.875 471.621094 354.613281 C 471.785156 358.625 473.117188 362.292969 475.1875 365.488281 C 471.589844 366.503906 468.222656 367.867188 465.140625 369.765625 C 457.628906 374.390625 451.816406 381.082031 444.585938 390.082031 L 422.238281 417.875 C 417.960938 406.257812 412.972656 396.195312 403.21875 385.734375 C 393.507812 375.269531 378.804688 366.714844 365.832031 361.242188 L 365.832031 314.570312 C 402.949219 320.203125 437.796875 295.988281 442.65625 264.457031 C 444.214844 254.5 438.613281 245.941406 431.101562 242.953125 C 427.371094 241.460938 422.988281 241.226562 418.914062 242.824219 C 414.835938 244.414062 411.40625 247.957031 409.679688 252.503906 C 405.707031 262.894531 400.882812 270.164062 393.847656 274.007812 C 386.824219 277.839844 376.398438 278.964844 359.34375 274.167969 C 356.890625 273.492188 354.382812 272.917969 351.832031 272.402344 C 352.140625 272.265625 352.453125 272.132812 352.71875 271.957031 C 370.613281 262.382812 377.503906 240.058594 367.828125 222.394531 C 363.003906 213.597656 354.960938 207.550781 345.890625 204.9375 C 342.496094 203.949219 338.960938 203.441406 335.398438 203.476562 C 329.453125 203.476562 323.40625 204.902344 317.839844 207.890625 C 299.972656 217.472656 293.109375 239.75 302.792969 257.414062 C 306.363281 263.96875 311.6875 268.972656 317.902344 272.160156 C 312.609375 273.378906 307.679688 275.351562 303.265625 278.0625 C 282.820312 290.636719 271.652344 310.441406 267.269531 328.683594 C 262.992188 347.628906 264.847656 367.507812 267.875 386.703125 C 269.746094 398.59375 280.402344 405.351562 289.949219 403.957031 C 299.496094 402.597656 307.785156 392.679688 306.015625 380.144531 C 304.757812 371.140625 304.453125 361.488281 305.398438 352.382812 L 306.355469 352.382812 C 307.339844 368.351562 313.246094 379.902344 323.675781 388.328125 C 323.675781 388.5625 323.675781 388.804688 323.707031 389.007812 C 326.394531 409.726562 325.0625 421.925781 320.074219 432.078125 C 315.085938 442.273438 305.675781 451.308594 290.625 463.910156 C 285.496094 468.195312 282.78125 474.101562 282.820312 479.746094 C 282.855469 485.378906 285.371094 490.410156 289.074219 494.113281 C 296.4375 501.523438 310.027344 503.863281 320.246094 495.234375 C 349.960938 470.128906 365.214844 446.390625 365.625 410.003906 C 368.511719 411.800781 371.023438 413.636719 372.789062 415.609375 C 376.800781 420.332031 381.144531 429.097656 385.9375 445.429688 C 387.027344 449.167969 389.035156 452.300781 391.441406 454.816406 C 387.914062 458.136719 383.933594 461.304688 378.84375 464.421875 L 307.183594 508.3125 C 298.550781 513.609375 294.449219 522.679688 295.699219 530.9375 C 296.957031 539.226562 304.601562 546.519531 314.382812 546.519531 L 670.316406 546.519531 C 683.089844 546.519531 693.3125 544.21875 700.136719 536.976562 C 706.960938 529.746094 708.867188 519.445312 708.867188 506.402344 L 708.867188 340.253906 C 708.867188 331.285156 708.285156 323.398438 703.332031 317.085938 C 698.375 310.765625 690.019531 308.320312 679.59375 308.320312 L 636.835938 308.320312 C 627.023438 308.320312 619.914062 309.886719 613.023438 313.042969 C 613.300781 310.296875 613.125 307.375 612.3125 304.453125 C 607.046875 285.832031 602.222656 259.945312 589.828125 246.019531 C 585.582031 241.226562 580.285156 237.183594 575.605469 234.566406 L 547.820312 219.117188 L 548.261719 168.808594 C 573.972656 165.175781 597.542969 154.441406 618.03125 135.890625 C 621.792969 142.203125 632.96875 138.335938 630.523438 130.210938 L 628.621094 123.898438 C 631.234375 118.253906 630.96875 111.796875 628.523438 106.878906 C 626.988281 103.820312 624.640625 101.171875 621.792969 99.234375 L 618.800781 88.671875 C 618.976562 88.539062 619.113281 88.363281 619.242188 88.195312 C 627.0625 78.855469 636.53125 75.800781 647.300781 72.574219 C 658.03125 69.339844 670.433594 65.980469 679.054688 54.492188 C 680.441406 52.667969 683.097656 50.964844 682.28125 45.289062 C 681.910156 42.441406 679.289062 39.519531 677.019531 38.535156 C 674.773438 37.542969 672.871094 37.46875 670.730469 37.507812 C 649.140625 37.882812 635.957031 29.292969 618.941406 28.878906 Z M 618.941406 28.878906 " fill-opacity="1" fill-rule="nonzero"/></g></svg>